<?xml version="1.0" encoding="UTF-8"?>
<svg id="Layer_1" xmlns="http://www.w3.org/2000/svg" version="1.1" viewBox="0 0 362.4 106.4">
  <defs>
    <style>
      .st0 {
        fill: #fff;
      }
    </style>
  </defs>
  <path class="st0" d="M.6,47.3h19.3l2.8-6.5h19.3l2.6,6.5h19.9L42,1.6h-18.7M23.3,1.6L.6,47.3M38.1,30.8h-11.1l5.8-13.6,5.3,13.6h0Z" />
  <path class="st0" d="M98.8,1.6h-31.7v45.7h19.2v-13.7h10.9c14,0,24.2-5.2,24.2-16.3,0-6.6-5.9-15.6-22.6-15.6M86.3,13.6h8.2c4.6,0,8.7.3,8.7,4.2,0,2.2-1.2,3.4-3.1,4-1.8.6-4.3.7-6.8.7h-7.1v-9h0Z" />
  <path class="st0" d="M154.4,0c-18.6,0-31.2,9.9-31.2,23.8,0,13.9,12.5,23.8,31.2,23.8,18.6,0,31.2-9.9,31.2-23.8C185.6,9.9,173.1,0,154.4,0M166.4,23.8c0,10-7.2,12.2-12,12.3-4.8,0-12-2.3-12-12.3s7.2-12.2,12-12.3c4.8,0,12,2.3,12,12.3h0Z" />
  <polygon class="st0" points="185.4 13.5 202.6 13.5 202.6 47.3 221.8 47.3 221.8 13.5 239 13.5 239 1.6 185.4 1.6 185.4 13.5 185.4 13.5" />
  <polygon class="st0" points="260.4 29.9 289.3 29.9 289.3 18.9 260.4 18.9 260.4 13.6 292.2 13.6 292.2 1.6 241.2 1.6 241.2 47.3 293.2 47.3 293.2 35.4 260.4 35.4 260.4 29.9 260.4 29.9" />
  <polygon class="st0" points="340.3 23.2 360.1 1.7 338.8 1.7 329.7 14 320.6 1.7 298 1.7 318.3 23.2 296 47.4 318.1 47.4 328.8 33.9 339.2 47.4 362.4 47.4 340.3 23.2 340.3 23.2" />
  <path class="st0" d="M105.8,63.8c1.1,1.1,1.7,2.3,1.8,3.6h-2.1c-.2-1-.7-1.8-1.4-2.4-.7-.6-1.7-.9-2.9-.9s-2.8.6-3.7,1.7c-.9,1.1-1.4,2.8-1.4,5.1s.4,3.4,1.3,4.5c.9,1.2,2.1,1.7,3.8,1.7s2.8-.6,3.6-1.8c.4-.6.8-1.5,1-2.5h2.1c-.2,1.7-.8,3.1-1.8,4.2-1.2,1.4-2.9,2.1-5.1,2.1s-3.4-.6-4.6-1.7c-1.6-1.5-2.4-3.8-2.4-6.9s.6-4.3,1.8-5.8c1.3-1.6,3.2-2.4,5.5-2.4s3.5.5,4.6,1.6h0Z" />
  <path class="st0" d="M117.5,71.5c.4,0,.8-.2.9-.6,0-.2.1-.4.1-.8,0-.7-.2-1.2-.7-1.4-.5-.3-1.1-.4-2-.4s-1.7.3-2.2.8c-.2.3-.4.8-.5,1.4h-1.8c0-1.4.5-2.4,1.4-3,.9-.6,1.9-.8,3.1-.8s2.5.3,3.3.8c.9.5,1.3,1.3,1.3,2.4v6.7c0,.2,0,.4.1.5,0,.1.3.2.5.2s.2,0,.3,0c.1,0,.2,0,.4,0v1.4c-.3,0-.5.1-.7.2-.2,0-.4,0-.6,0-.7,0-1.2-.2-1.5-.7-.2-.2-.3-.6-.3-1.1-.4.5-1,1-1.7,1.4-.8.4-1.6.6-2.5.6s-2-.3-2.6-1-1-1.5-1-2.4.3-1.9,1-2.5,1.6-1,2.6-1.1l3.1-.4h0ZM113.4,76.8c.4.3.9.5,1.5.5s1.4-.2,2-.5c1.1-.5,1.6-1.4,1.6-2.6v-1.6c-.2.2-.5.3-.9.4s-.7.2-1.1.2l-1.2.2c-.7,0-1.2.2-1.6.4-.6.3-.9.9-.9,1.6s.2,1,.6,1.3h0Z" />
  <path class="st0" d="M124.6,66.9h1.9v1.7c.6-.7,1.1-1.2,1.8-1.5.6-.3,1.3-.4,2.1-.4,1.6,0,2.8.6,3.3,1.7.3.6.5,1.5.5,2.7v7.4h-2v-7.3c0-.7-.1-1.3-.3-1.7-.4-.7-1-1.1-1.9-1.1s-.8,0-1.1.1c-.5.2-1,.5-1.4.9-.3.4-.5.8-.6,1.2-.1.4-.1,1-.1,1.8v6.1h-1.9v-11.6h0Z" />
  <path class="st0" d="M144.2,71.5c.4,0,.8-.2.9-.6,0-.2.1-.4.1-.8,0-.7-.2-1.2-.7-1.4-.5-.3-1.1-.4-2-.4s-1.7.3-2.2.8c-.2.3-.4.8-.5,1.4h-1.8c0-1.4.5-2.4,1.4-3,.9-.6,1.9-.8,3.1-.8s2.5.3,3.3.8c.9.5,1.3,1.3,1.3,2.4v6.7c0,.2,0,.4.1.5,0,.1.3.2.5.2s.2,0,.3,0c.1,0,.2,0,.4,0v1.4c-.3,0-.5.1-.7.2-.2,0-.4,0-.6,0-.7,0-1.2-.2-1.5-.7-.2-.2-.3-.6-.3-1.1-.4.5-1,1-1.7,1.4-.7.4-1.6.6-2.5.6s-2-.3-2.6-1-1-1.5-1-2.4.3-1.9,1-2.5,1.6-1,2.6-1.1l3.1-.4h0ZM140.1,76.8c.4.3.9.5,1.5.5s1.4-.2,2-.5c1.1-.5,1.6-1.4,1.6-2.6v-1.6c-.2.2-.5.3-.9.4s-.7.2-1.1.2l-1.2.2c-.7,0-1.2.2-1.6.4-.6.3-.9.9-.9,1.6s.2,1,.6,1.3h0Z" />
  <path class="st0" d="M157.7,67.3c.4.2.7.6,1.2,1.1v-5.9h1.9v16h-1.8v-1.6c-.4.7-1,1.2-1.6,1.6s-1.3.5-2.1.5c-1.3,0-2.4-.5-3.4-1.6s-1.4-2.5-1.4-4.3.4-3.2,1.3-4.4,2.1-1.9,3.7-1.9,1.6.2,2.2.6h0ZM153.3,76c.5.8,1.4,1.3,2.5,1.3s1.6-.4,2.2-1.2.9-1.9.9-3.3-.3-2.6-.9-3.3c-.6-.7-1.3-1.1-2.2-1.1s-1.8.4-2.4,1.1-.9,1.9-.9,3.3.3,2.3.8,3.1h0Z" />
  <path class="st0" d="M164.6,62.6h2v2.2h-2v-2.2h0ZM164.6,67h2v11.6h-2v-11.6h0Z" />
  <path class="st0" d="M176.8,71.5c.4,0,.8-.2.9-.6,0-.2.1-.4.1-.8,0-.7-.2-1.2-.7-1.4-.5-.3-1.1-.4-2-.4s-1.7.3-2.2.8c-.2.3-.4.8-.5,1.4h-1.8c0-1.4.5-2.4,1.4-3,.9-.6,1.9-.8,3.1-.8s2.5.3,3.3.8c.9.5,1.3,1.3,1.3,2.4v6.7c0,.2,0,.4.1.5,0,.1.3.2.5.2s.2,0,.3,0c.1,0,.2,0,.4,0v1.4c-.3,0-.5.1-.7.2-.2,0-.4,0-.6,0-.7,0-1.2-.2-1.5-.7-.2-.2-.3-.6-.3-1.1-.4.5-1,1-1.7,1.4-.7.4-1.6.6-2.5.6s-2-.3-2.6-1-1-1.5-1-2.4.3-1.9,1-2.5,1.6-1,2.6-1.1l3.1-.4h0ZM172.6,76.8c.4.3.9.5,1.5.5s1.4-.2,2-.5c1.1-.5,1.6-1.4,1.6-2.6v-1.6c-.2.2-.5.3-.9.4s-.7.2-1.1.2l-1.2.2c-.7,0-1.2.2-1.6.4-.6.3-.9.9-.9,1.6s.2,1,.6,1.3h0Z" />
  <path class="st0" d="M183.9,66.9h1.9v1.7c.6-.7,1.1-1.2,1.8-1.5.6-.3,1.3-.4,2.1-.4,1.6,0,2.8.6,3.3,1.7.3.6.5,1.5.5,2.7v7.4h-2v-7.3c0-.7-.1-1.3-.3-1.7-.4-.7-1-1.1-1.9-1.1s-.8,0-1.1.1c-.5.2-1,.5-1.4.9-.3.4-.5.8-.6,1.2-.1.4-.1,1-.1,1.8v6.1h-1.9v-11.6h0Z" />
  <polygon class="st0" points="196.7 71.4 202.1 71.4 202.1 73.4 196.7 73.4 196.7 71.4 196.7 71.4" />
  <path class="st0" d="M205.8,62.6h6.9c1.9,0,3.2.6,4,1.7.5.7.7,1.4.7,2.3s-.3,1.8-.9,2.5c-.3.3-.7.7-1.3.9.8.3,1.4.7,1.8,1.1.7.7,1.1,1.7,1.1,2.9s-.3,2-1,2.8c-1,1.2-2.5,1.9-4.6,1.9h-6.8v-15.9h0ZM211.9,69.4c.9,0,1.6-.1,2.1-.4.8-.4,1.2-1.1,1.2-2.2s-.4-1.7-1.3-2.1c-.5-.2-1.2-.3-2.1-.3h-3.9v4.9h4,0ZM212.6,76.7c1.3,0,2.3-.4,2.9-1.2.4-.5.5-1.1.5-1.8,0-1.2-.5-1.9-1.6-2.4-.6-.2-1.3-.3-2.2-.3h-4.3v5.6h4.7,0Z" />
  <path class="st0" d="M227.6,71.5c.4,0,.8-.2.9-.6,0-.2.1-.4.1-.8,0-.7-.2-1.2-.7-1.4-.5-.3-1.1-.4-2-.4s-1.7.3-2.2.8c-.2.3-.4.8-.5,1.4h-1.8c0-1.4.5-2.4,1.4-3,.9-.6,1.9-.8,3.1-.8s2.5.3,3.3.8c.9.5,1.3,1.3,1.3,2.4v6.7c0,.2,0,.4.1.5,0,.1.3.2.5.2s.2,0,.3,0c.1,0,.2,0,.4,0v1.4c-.3,0-.5.1-.7.2-.2,0-.4,0-.6,0-.7,0-1.2-.2-1.5-.7-.2-.2-.3-.6-.3-1.1-.4.5-1,1-1.7,1.4-.7.4-1.6.6-2.5.6s-2-.3-2.6-1-1-1.5-1-2.4.3-1.9,1-2.5,1.6-1,2.6-1.1l3.1-.4h0ZM223.5,76.8c.4.3.9.5,1.5.5s1.4-.2,2-.5c1.1-.5,1.6-1.4,1.6-2.6v-1.6c-.2.2-.5.3-.9.4s-.7.2-1.1.2l-1.2.2c-.7,0-1.2.2-1.6.4-.6.3-.9.9-.9,1.6s.2,1,.6,1.3h0Z" />
  <path class="st0" d="M235.9,74.9c0,.7.2,1.2.5,1.5.5.6,1.4.9,2.6.9s1.4-.2,2-.5.8-.8.8-1.5-.2-.9-.7-1.1c-.3-.2-.9-.3-1.7-.6l-1.6-.4c-1-.2-1.8-.5-2.2-.8-.9-.5-1.3-1.3-1.3-2.2s.4-2,1.2-2.7,1.9-1,3.2-1,3,.5,3.8,1.5c.5.7.7,1.3.7,2.1h-1.8c0-.4-.2-.8-.5-1.2-.5-.5-1.3-.8-2.4-.8s-1.3.1-1.7.4-.6.7-.6,1.1.3.9.8,1.2c.3.2.7.3,1.3.5l1.3.3c1.4.3,2.4.7,2.9,1,.8.5,1.1,1.3,1.1,2.3s-.4,1.9-1.2,2.7-2,1.1-3.6,1.1-3-.4-3.7-1.2c-.7-.8-1.1-1.8-1.2-2.9h1.9Z" />
  <path class="st0" d="M253.9,67.3c.8.4,1.4.9,1.8,1.5.4.6.6,1.3.8,2.1.1.5.2,1.4.2,2.6h-8.5c0,1.2.3,2.1.8,2.8.5.7,1.3,1.1,2.4,1.1s1.8-.3,2.4-1c.3-.4.6-.8.7-1.4h1.9c0,.4-.2.9-.5,1.4-.3.5-.6.9-1,1.3-.6.6-1.3,1-2.2,1.2-.5.1-1,.2-1.6.2-1.4,0-2.7-.5-3.6-1.6-1-1.1-1.5-2.5-1.5-4.4s.5-3.4,1.5-4.6c1-1.2,2.3-1.8,4-1.8s1.6.2,2.4.6h0ZM254.6,71.8c0-.8-.3-1.5-.5-2-.5-.9-1.4-1.4-2.7-1.4s-1.6.3-2.2,1c-.6.7-.9,1.5-1,2.5h6.4Z" />
  <path class="st0" d="M266.5,67.3c.4.2.7.6,1.2,1.1v-5.9h1.9v16h-1.8v-1.6c-.5.7-1,1.2-1.6,1.6s-1.3.5-2.1.5c-1.3,0-2.4-.5-3.4-1.6s-1.4-2.5-1.4-4.3.4-3.2,1.3-4.4c.9-1.2,2.1-1.9,3.7-1.9s1.6.2,2.2.6h0ZM262.1,76c.5.8,1.4,1.3,2.5,1.3s1.6-.4,2.2-1.2.9-1.9.9-3.3-.3-2.6-.9-3.3c-.6-.7-1.3-1.1-2.2-1.1s-1.8.4-2.4,1.1c-.6.8-.9,1.9-.9,3.3s.3,2.3.8,3.1h0Z" />
  <path class="st0" d="M105.1,86.2c1.6.8,2.5,2.3,2.9,4.4h-2.1c-.2-1.2-.8-2-1.6-2.5s-1.8-.8-3-.8-2.7.6-3.7,1.7-1.5,2.8-1.5,4.9.4,3.4,1.2,4.6c.8,1.2,2.1,1.8,4,1.8s2.6-.4,3.5-1.2c.9-.8,1.4-2.2,1.4-4.1h-5v-1.8h7v8.5h-1.4l-.5-2.1c-.7.8-1.3,1.4-1.9,1.7-.9.5-2.1.8-3.6.8s-3.4-.6-4.8-1.8c-1.5-1.5-2.2-3.6-2.2-6.3s.7-4.8,2.1-6.4c1.3-1.5,3.1-2.3,5.3-2.3s2.8.3,3.8.9h0Z" />
  <polygon class="st0" points="112.6 85.7 114.5 85.7 114.5 101.7 112.6 101.7 112.6 85.7 112.6 85.7" />
  <path class="st0" d="M126.9,91.2c1,1,1.5,2.5,1.5,4.4s-.4,3.4-1.4,4.6c-.9,1.2-2.3,1.8-4.2,1.8s-2.9-.5-3.8-1.6-1.4-2.5-1.4-4.3.5-3.5,1.5-4.7c1-1.2,2.3-1.7,4-1.7s2.7.5,3.8,1.5h0ZM125.6,98.9c.5-1,.7-2.1.7-3.3s-.2-2-.5-2.6c-.5-1.1-1.5-1.6-2.8-1.6s-2,.4-2.6,1.4c-.5.9-.8,2-.8,3.3s.3,2.3.8,3.1c.5.8,1.4,1.2,2.6,1.2s2.2-.5,2.6-1.5h0Z" />
  <path class="st0" d="M131.2,85.7h1.9v5.8c.4-.6.9-1,1.5-1.3.6-.3,1.2-.4,1.9-.4,1.4,0,2.6.5,3.5,1.5s1.4,2.5,1.4,4.4-.4,3.4-1.3,4.6c-.9,1.2-2.1,1.8-3.7,1.8s-1.6-.2-2.2-.6c-.4-.2-.8-.7-1.2-1.2v1.5h-1.8v-16h0ZM138.6,99c.5-.8.8-1.9.8-3.3s-.3-2.2-.8-3c-.5-.8-1.3-1.2-2.3-1.2s-1.7.3-2.4,1c-.7.7-1,1.7-1,3.2s.1,2,.4,2.7c.5,1.3,1.5,1.9,2.9,1.9s1.9-.4,2.4-1.3h0Z" />
  <path class="st0" d="M150.9,94.6c.4,0,.8-.2.9-.6,0-.2.1-.4.1-.8,0-.7-.2-1.2-.7-1.4-.5-.3-1.1-.4-2-.4s-1.7.3-2.2.8c-.2.3-.4.8-.5,1.4h-1.8c0-1.4.5-2.4,1.4-3,.9-.6,1.9-.8,3.1-.8s2.5.3,3.3.8c.9.5,1.3,1.3,1.3,2.4v6.7c0,.2,0,.4.1.5,0,.1.3.2.5.2s.2,0,.3,0c.1,0,.2,0,.4,0v1.4c-.3,0-.5.1-.7.2-.2,0-.4,0-.6,0-.7,0-1.2-.2-1.5-.7-.2-.2-.3-.6-.3-1.1-.4.5-1,1-1.7,1.4-.7.4-1.6.6-2.5.6s-2-.3-2.6-1-1-1.5-1-2.4.3-1.9,1-2.5,1.6-1,2.6-1.1l3.1-.4h0ZM146.8,99.9c.4.3.9.5,1.5.5s1.4-.2,2-.5c1.1-.5,1.6-1.4,1.6-2.6v-1.6c-.2.2-.5.3-.9.4s-.7.2-1.1.2l-1.2.2c-.7,0-1.2.2-1.6.4-.6.3-.9.9-.9,1.6s.2,1,.6,1.3h0Z" />
  <polygon class="st0" points="158 85.7 160 85.7 160 101.7 158 101.7 158 85.7 158 85.7" />
  <polygon class="st0" points="171.1 85.7 173.2 85.7 173.2 92.3 181.4 92.3 181.4 85.7 183.6 85.7 183.6 101.7 181.4 101.7 181.4 94.2 173.2 94.2 173.2 101.7 171.1 101.7 171.1 85.7 171.1 85.7" />
  <path class="st0" d="M194.9,90.4c.8.4,1.4.9,1.8,1.5.4.6.6,1.3.8,2.1.1.5.2,1.4.2,2.6h-8.4c0,1.2.3,2.1.8,2.8.5.7,1.3,1.1,2.4,1.1s1.8-.3,2.4-1c.3-.4.6-.8.7-1.4h1.9c0,.4-.2.9-.5,1.4-.3.5-.6.9-1,1.3-.6.6-1.3,1-2.2,1.2-.5.1-1,.2-1.6.2-1.4,0-2.7-.5-3.6-1.6-1-1.1-1.5-2.5-1.5-4.4s.5-3.4,1.5-4.6c1-1.2,2.3-1.8,3.9-1.8s1.6.2,2.4.6h0ZM195.6,94.9c0-.8-.3-1.5-.6-2-.5-.9-1.4-1.4-2.7-1.4s-1.6.3-2.2,1c-.6.7-.9,1.5-1,2.5h6.4Z" />
  <path class="st0" d="M207.3,94.6c.4,0,.8-.2.9-.6,0-.2.1-.4.1-.8,0-.7-.2-1.2-.7-1.4-.5-.3-1.1-.4-2-.4s-1.7.3-2.2.8c-.2.3-.4.8-.5,1.4h-1.8c0-1.4.5-2.4,1.4-3,.9-.6,1.9-.8,3.1-.8s2.5.3,3.3.8c.9.5,1.3,1.3,1.3,2.4v6.7c0,.2,0,.4.1.5,0,.1.3.2.5.2s.2,0,.3,0c.1,0,.2,0,.4,0v1.4c-.3,0-.5.1-.7.2-.2,0-.4,0-.6,0-.7,0-1.2-.2-1.5-.7-.2-.2-.3-.6-.3-1.1-.4.5-1,1-1.7,1.4-.8.4-1.6.6-2.5.6s-2-.3-2.6-1-1-1.5-1-2.4.3-1.9,1-2.5,1.6-1,2.6-1.1l3.1-.4h0ZM203.2,99.9c.4.3.9.5,1.5.5s1.4-.2,2-.5c1.1-.5,1.6-1.4,1.6-2.6v-1.6c-.2.2-.6.3-.9.4-.4,0-.7.2-1.1.2l-1.2.2c-.7,0-1.2.2-1.6.4-.6.3-.9.9-.9,1.6s.2,1,.6,1.3h0Z" />
  <polygon class="st0" points="214.5 85.7 216.4 85.7 216.4 101.7 214.5 101.7 214.5 85.7 214.5 85.7" />
  <path class="st0" d="M220.7,86.8h2v3.2h1.9v1.6h-1.9v7.6c0,.4.1.7.4.8.1,0,.4.1.8.1h.3c.1,0,.2,0,.4,0v1.6c-.2,0-.5.1-.7.1-.2,0-.5,0-.8,0-.9,0-1.5-.2-1.9-.7-.3-.5-.5-1.1-.5-1.8v-7.7h-1.6v-1.6h1.6v-3.2h0Z" />
  <path class="st0" d="M227.5,85.7h1.9v5.9c.5-.6.9-1,1.2-1.2.6-.4,1.4-.6,2.4-.6,1.7,0,2.8.6,3.4,1.8.3.6.5,1.5.5,2.7v7.4h-2v-7.3c0-.8-.1-1.5-.3-1.9-.4-.6-1-.9-2-.9s-1.5.3-2.2.8c-.7.6-1,1.6-1,3.2v6.2h-1.9v-16h0Z" />
  <path class="st0" d="M259,86.9c1.1,1.1,1.7,2.3,1.8,3.6h-2.1c-.2-1-.7-1.8-1.4-2.4-.7-.6-1.7-.9-3-.9s-2.8.6-3.7,1.7c-1,1.1-1.4,2.8-1.4,5.1s.4,3.4,1.3,4.5c.9,1.2,2.1,1.7,3.8,1.7s2.8-.6,3.6-1.8c.4-.6.8-1.5,1-2.5h2.1c-.2,1.7-.8,3.1-1.8,4.2-1.2,1.4-2.9,2.1-5.1,2.1s-3.4-.6-4.6-1.7c-1.6-1.5-2.5-3.8-2.5-6.9s.6-4.3,1.8-5.8c1.3-1.6,3.2-2.4,5.5-2.4s3.5.5,4.6,1.6h0Z" />
  <path class="st0" d="M272.9,91.2c1,1,1.5,2.5,1.5,4.4s-.5,3.4-1.4,4.6c-.9,1.2-2.3,1.8-4.2,1.8s-2.9-.5-3.8-1.6-1.4-2.5-1.4-4.3.5-3.5,1.5-4.7c1-1.2,2.3-1.7,4-1.7s2.7.5,3.8,1.5h0ZM271.7,98.9c.5-1,.7-2.1.7-3.3s-.2-2-.5-2.6c-.5-1.1-1.5-1.6-2.8-1.6s-2,.4-2.6,1.4c-.5.9-.8,2-.8,3.3s.3,2.3.8,3.1c.5.8,1.4,1.2,2.5,1.2s2.2-.5,2.6-1.5h0Z" />
  <path class="st0" d="M277.4,90h1.9v1.7c.5-.6.9-1,1.3-1.2.6-.4,1.4-.7,2.2-.7s1.7.2,2.2.7c.3.3.6.6.9,1.2.4-.6.9-1.1,1.5-1.4.6-.3,1.2-.4,2-.4,1.6,0,2.6.6,3.2,1.7.3.6.5,1.4.5,2.4v7.7h-2v-8.1c0-.8-.2-1.3-.6-1.6-.4-.3-.9-.4-1.4-.4s-1.4.3-2,.8c-.5.5-.8,1.4-.8,2.6v6.8h-2v-7.6c0-.8,0-1.4-.3-1.7-.3-.5-.9-.8-1.7-.8s-1.4.3-2,.9-.9,1.6-.9,3.1v6.2h-2v-11.6h0Z" />
  <path class="st0" d="M296.7,90.1h1.9v1.5c.4-.5.8-.9,1.3-1.2.7-.4,1.4-.7,2.3-.7,1.3,0,2.4.5,3.4,1.5.9,1,1.4,2.4,1.4,4.3s-.7,4.3-2,5.4c-.8.7-1.8,1-2.9,1s-1.6-.2-2.2-.6c-.4-.2-.7-.6-1.2-1.1v5.9h-2v-16.2h0ZM304,99.2c.6-.8.9-1.9.9-3.4s-.1-1.7-.4-2.4c-.5-1.3-1.4-1.9-2.8-1.9s-2.3.7-2.8,2c-.3.7-.4,1.6-.4,2.8s.1,1.7.4,2.3c.5,1.2,1.4,1.8,2.8,1.8s1.7-.4,2.3-1.1h0Z" />
  <path class="st0" d="M316.4,94.6c.5,0,.8-.2.9-.6,0-.2.1-.4.1-.8,0-.7-.2-1.2-.7-1.4-.5-.3-1.1-.4-2-.4s-1.7.3-2.2.8c-.2.3-.4.8-.5,1.4h-1.8c0-1.4.5-2.4,1.4-3,.9-.6,1.9-.8,3.1-.8s2.5.3,3.3.8c.9.5,1.3,1.3,1.3,2.4v6.7c0,.2,0,.4.1.5,0,.1.3.2.5.2s.2,0,.3,0c.1,0,.2,0,.4,0v1.4c-.3,0-.5.1-.7.2-.2,0-.4,0-.6,0-.7,0-1.2-.2-1.5-.7-.2-.2-.3-.6-.3-1.1-.4.5-1,1-1.7,1.4-.7.4-1.6.6-2.5.6s-2-.3-2.6-1c-.7-.7-1-1.5-1-2.4s.3-1.9,1-2.5,1.5-1,2.6-1.1l3.1-.4h0ZM312.3,99.9c.4.3.9.5,1.5.5s1.4-.2,2-.5c1.1-.5,1.6-1.4,1.6-2.6v-1.6c-.2.2-.5.3-.9.4-.4,0-.7.2-1.1.2l-1.2.2c-.7,0-1.2.2-1.6.4-.6.3-.9.9-.9,1.6s.2,1,.6,1.3h0Z" />
  <path class="st0" d="M323.5,90h1.9v1.7c.5-.7,1.1-1.2,1.8-1.5.6-.3,1.3-.4,2-.4,1.6,0,2.8.6,3.3,1.7.3.6.5,1.5.5,2.7v7.4h-2v-7.3c0-.7-.1-1.3-.3-1.7-.4-.7-1-1.1-1.9-1.1s-.8,0-1.1.1c-.5.2-1,.5-1.4,1-.3.4-.5.8-.6,1.2-.1.4-.1,1-.1,1.8v6.1h-2v-11.6h0Z" />
  <path class="st0" d="M344.1,90h2.2c-.3.8-.9,2.4-1.8,5.1-.7,2-1.3,3.6-1.8,4.9-1.1,3-1.9,4.8-2.4,5.4s-1.3,1-2.4,1-.5,0-.6,0c-.1,0-.3,0-.5-.1v-1.8c.3,0,.6.2.7.2.1,0,.3,0,.4,0,.4,0,.6,0,.8-.2s.3-.3.4-.4c0,0,.2-.3.4-.9.2-.5.4-.9.5-1.2l-4.3-12h2.2l3.1,9.5,3.1-9.5h0Z" />
  <polygon class="st0" points="86.3 64.9 0 64.9 0 62.7 86.3 62.7 86.3 64.9 86.3 64.9" />
</svg>